<svg width="48" height="48" viewBox="0 0 48 48" fill="none" xmlns="http://www.w3.org/2000/svg">
<circle opacity="0.2" cx="24" cy="24" r="21" stroke="#1E62EC" stroke-width="6"/>
<mask id="path-2-inside-1_2007_53487" fill="white">
<path d="M42.3851 8.5731C45.6429 12.4556 47.588 17.2699 47.9415 22.3259C48.2951 27.3818 47.0389 32.4199 44.3531 36.7181L39.2649 33.5386C41.2792 30.3149 42.2213 26.5364 41.9562 22.7444C41.691 18.9524 40.2322 15.3417 37.7888 12.4298L42.3851 8.5731Z"/>
</mask>
<path d="M42.3851 8.5731C45.6429 12.4556 47.588 17.2699 47.9415 22.3259C48.2951 27.3818 47.0389 32.4199 44.3531 36.7181L39.2649 33.5386C41.2792 30.3149 42.2213 26.5364 41.9562 22.7444C41.691 18.9524 40.2322 15.3417 37.7888 12.4298L42.3851 8.5731Z" stroke="#1E62EC" stroke-width="12" mask="url(#path-2-inside-1_2007_53487)"/>
</svg>
